<?xml version="1.0" encoding="utf-8"?>
<!-- Generator: Adobe Illustrator 21.1.0, SVG Export Plug-In . SVG Version: 6.00 Build 0)  -->
<svg version="1.1" id="Layer_1" xmlns="http://www.w3.org/2000/svg" xmlns:xlink="http://www.w3.org/1999/xlink" x="0px" y="0px"
	 viewBox="0 0 390 389" style="enable-background:new 0 0 390 389;" xml:space="preserve">
<style type="text/css">
	.st0{fill:#488AFF;}
</style>
<g>
	<path class="st0" d="M335.1,186.7h-16.5l-1.9,6.2h16.5L335.1,186.7z"/>
	<path class="st0" d="M362.3,179.6c-0.9-1.8-2.8-2.4-4.2-2.4h-30.8l-2.1,6.8h27.6l-4.2,13.5h-27.8l-2.1,6.8h29.6
		c2.9,0,3.7-0.5,5.7-1.7c2.1-1.2,3.7-3.3,4.6-5.8c0.9-2.5,3-9.6,3.7-12C363,182.3,363.2,181.4,362.3,179.6L362.3,179.6z"/>
</g>
<path class="st0" d="M253.2,317.2l13.1-5.5l12.7,5.6l-12.7-20L253.2,317.2z M253.2,324.3l13,7.6l13.3-7.6l-13.2,18.3
	C266.3,342.6,253.2,324.3,253.2,324.3z"/>
<path class="st0" d="M266.5,316l-12,5l12,6.7l11.7-6.5L266.5,316z"/>
<path class="st0" d="M100.6,313.4l23.2-13.9c2.4-1.4,4.8-2.2,7.1-2.2c2.9,0,5.1,1.1,6.3,1.9l-27.6,15.5l11.8,6.8l0,4.2L100.6,313.4z
	"/>
<path class="st0" d="M131.6,309.8l-11.6,6.8l-3.2-1.8l21.2-11.9v29.4c0,4.5-4.1,7.8-6.4,9.3V309.8z"/>
<path class="st0" d="M128,340.7c-7.2-4.2-24.3-14.4-27.2-16.6c-2.3-1.7-2.7-5.8-2.7-8.1l26.8,15.9l0-14.1l3.1-1.8V340.7z"/>
<path class="st0" d="M263.6,80.2l2.5-11.8l12.5-8.6l1.5-7l-12.5,8.6l3.6-16.9h-9.6l-5.2,24.7l-5.3,3.6l-1.2,6.8l5-3.5l-2.6,12.4H283
	l1.7-8.3L263.6,80.2z"/>
<path class="st0" d="M267.3,269.1c-27.2,0-49.2,22-49.2,49.2c0,27.2,22,49.2,49.2,49.2c27.2,0,49.2-22,49.2-49.2
	C316.4,291.1,294.4,269.1,267.3,269.1z M267.3,357.6c-21.7,0-39.3-17.6-39.3-39.3c0-21.7,17.6-39.3,39.3-39.3
	c21.7,0,39.3,17.6,39.3,39.3C306.6,340,289,357.6,267.3,357.6z"/>
<path class="st0" d="M121.7,269.1c-27.2,0-49.2,22-49.2,49.2c0,27.2,22,49.2,49.2,49.2c27.2,0,49.2-22,49.2-49.2
	C170.9,291.1,148.8,269.1,121.7,269.1z M121.7,357.6c-21.7,0-39.3-17.6-39.3-39.3c0-21.7,17.6-39.3,39.3-39.3
	c21.7,0,39.3,17.6,39.3,39.3C161,340,143.4,357.6,121.7,357.6z"/>
<path class="st0" d="M267.3,17.8c-27.2,0-49.2,22-49.2,49.2c0,27.2,22,49.2,49.2,49.2c27.2,0,49.2-22,49.2-49.2
	C316.4,39.8,294.4,17.8,267.3,17.8z M267.3,106.3c-21.7,0-39.3-17.6-39.3-39.3c0-21.7,17.6-39.3,39.3-39.3
	c21.7,0,39.3,17.6,39.3,39.3C306.6,88.6,289,106.3,267.3,106.3z"/>
<path class="st0" d="M339.8,143.4c-27.2,0-49.2,22-49.2,49.2c0,27.2,22,49.2,49.2,49.2c27.2,0,49.2-22,49.2-49.2
	C389,165.4,367,143.4,339.8,143.4z M339.8,231.9c-21.7,0-39.3-17.6-39.3-39.3c0-21.7,17.6-39.3,39.3-39.3
	c21.7,0,39.3,17.6,39.3,39.3C379.2,214.3,361.5,231.9,339.8,231.9z"/>
<path class="st0" d="M50.2,143.4C23,143.4,1,165.4,1,192.6c0,27.2,22,49.2,49.2,49.2s49.2-22,49.2-49.2
	C99.4,165.4,77.3,143.4,50.2,143.4z M50.2,231.9c-21.7,0-39.3-17.6-39.3-39.3c0-21.7,17.6-39.3,39.3-39.3
	c21.7,0,39.3,17.6,39.3,39.3C89.5,214.3,71.9,231.9,50.2,231.9z"/>
<path class="st0" d="M121.7,17.8c-27.2,0-49.2,22-49.2,49.2c0,27.2,22,49.2,49.2,49.2c27.2,0,49.2-22,49.2-49.2
	C170.9,39.8,148.8,17.8,121.7,17.8z M121.7,106.3c-21.7,0-39.3-17.6-39.3-39.3c0-21.7,17.6-39.3,39.3-39.3
	c21.7,0,39.3,17.6,39.3,39.3C161,88.6,143.4,106.3,121.7,106.3z"/>
<path class="st0" d="M135.8,65.2c-1.5-1.1-3.5-1.5-3.5-1.5s1.7-1,2.5-2c0.7-1,1.1-2.6,1.1-3.4c0.1-0.8,0.2-4.2-2.5-6.2
	c-2.1-1.5-4.4-2.1-7.6-2.3v-6.9h-4.3v6.8h-3.2v-6.8h-4.3v6.8h-8.4V54h2.5c0.7,0,1.9,0.1,2.4,0.6c0.5,0.6,0.6,0.9,0.6,2l0,17.6
	c0,0.4-0.1,0.9-0.4,1.3c-0.4,0.3-0.7,0.4-1.6,0.4h-2.5l-0.9,5.1h8.4v6.8h4.3V81h3.2v6.8h4.3v-6.9c1.1-0.1,2.1-0.1,2.7-0.2
	c1.2-0.2,4-0.5,6.5-2.3c2.6-1.8,3.1-4.6,3.2-7.4C138.3,68.2,137.2,66.2,135.8,65.2L135.8,65.2z M118.3,54.4c0,0,1.4-0.1,2.7-0.1
	c1.3,0,2.5,0.1,4.3,0.6c1.7,0.5,2.8,1.8,2.8,3.4c0,1.6-0.6,2.6-1.8,3.2c-1.2,0.7-2.8,1-4.4,1.1c-1.5,0.1-3.5,0-3.5,0
	S118.3,54.4,118.3,54.4z M127.8,74.7c-1,0.5-2.9,1-4.8,1.2c-1.9,0.1-4.7,0.1-4.7,0.1v-9.1c0,0,2.7-0.1,4.8,0
	c2.1,0.1,3.9,0.7,4.7,1.1c0.8,0.4,2.2,1.3,2.2,3.4C130,73.4,128.8,74.2,127.8,74.7z"/>
<path class="st0" d="M67.5,175.1c-1.8,1.3-2.4,3.5-2.4,3.5l-4.5,16.7l-15.4-21.1c0,0-3.4-0.2-4.7,0.3c-1.2,0.5-2.9,1.7-3.6,4.3
	c-0.7,2.7-8.9,32.5-8.9,32.5s4,0.1,5.2-0.6c1.2-0.7,2.5-1.4,3.2-4.1c0.5-1.8,4.5-16.6,4.5-16.6l15.4,21.3c0,0,3.7,0.1,5-0.5
	c1.5-0.7,2.8-2.3,3.3-4.2c0.5-1.9,8.8-32.5,8.8-32.5S69.2,173.7,67.5,175.1z M57.7,205.4l-15.3-21l1.1-4.6l15.5,21.3L57.7,205.4z"/>
<path class="st0" d="M243.5,191.1c1.3,4.6,2.1,9.2,2.1,13.7c0,28.2-22.9,51.1-51.1,51.1c-28.2,0-51.1-22.9-51.1-51.1
	c0-35.4,46.4-77.2,51.1-82.9c3.1,3.7,23.4,22,37.5,44.9l-13.7,8.3c-1.6-2.6-18.1-23.9-23.9-30.1c-5.8,6.2-12.8,14.2-19.2,23
	c-13.2,18.4-15.9,30.1-15.9,36.8c0,19.3,15.7,35.1,35.1,35.1c19.3,0,35.1-15.7,35.1-35.1c0-2.1-0.3-4.8-1.1-8.1l-7.9,2.9l8.1-25.8
	l22.9,14.3L243.5,191.1z"/>
<path class="st0" d="M198.1,232.4h-3.6c-15.3,0-27.7-12.4-27.7-27.7v-3.6h7.1v3.6c0,11.3,9.2,20.6,20.6,20.6h3.6V232.4z"/>
</svg>
