<?xml version="1.0" encoding="utf-8"?>
<!-- Generator: Adobe Illustrator 21.1.0, SVG Export Plug-In . SVG Version: 6.00 Build 0)  -->
<svg version="1.1" id="Layer_1" xmlns="http://www.w3.org/2000/svg" xmlns:xlink="http://www.w3.org/1999/xlink" x="0px" y="0px"
	 viewBox="0 0 390 389" style="enable-background:new 0 0 390 389;" xml:space="preserve">
<style type="text/css">
	.st0{fill:#488AFF;}
</style>
<path class="st0" d="M0.6,277.8c0-7.7,0.2-15.3-0.1-23c-0.2-4.9,1.6-8,6-10.4c12.1-6.7,23.9-13.8,36-20.6c2.6-1.5,3.8-3,3.8-6.1
	c-0.2-15-0.2-30,0-45c0-2.9-1.1-4.4-3.5-5.8c-12.3-7-24.5-14.2-36.8-21.1c-3.8-2.1-5.4-4.9-5.4-9.2c0.1-15.8,0.1-31.7,0-47.5
	c0-4.3,1.5-7.1,5.3-9.2C19.4,72.3,33,64.5,46.4,56.5c4.3-2.6,7.7-2.4,12,0.2c11.8,7.2,23.9,13.8,35.8,20.8c2.6,1.5,4.5,1.7,7.2,0.1
	c12.6-7.5,25.2-14.8,38-21.9c3.1-1.7,4.2-3.7,4-7.1c-0.2-3.3,0.3-6.7-0.1-10c-0.7-6.3,1.7-10.1,7.3-13.1
	c13.3-7.2,26.3-14.9,39.4-22.6c3.6-2.1,6.7-2.1,10.2,0C214,11,228,19,242,27c3.5,2,5.1,4.6,4.8,8.5c0,0.2,0,0.3,0,0.5
	c0.2,5.8-1.4,12.6,1.1,17.1c2.4,4.3,9.1,6.2,14,9c9.1,5.3,18.1,10.6,27.3,15.6c1.6,0.9,4.5,0.8,6.1,0c12.5-6.9,24.9-14.1,37.2-21.4
	c3.8-2.3,6.9-2.2,10.6,0c13.7,8.1,27.6,16.1,41.5,24c3.5,2,4.9,4.5,4.9,8.4c-0.1,16.2-0.1,32.3,0,48.5c0,4.2-1.7,6.7-5.3,8.7
	c-12.3,6.9-24.5,14.1-36.8,21.1c-2.4,1.4-3.6,2.7-3.6,5.7c0.2,15.2,0,30.3,0.2,45.5c0,1.8,1.6,4.3,3.2,5.2
	c12.3,7.4,24.6,14.5,37.1,21.5c3.7,2.1,5.2,4.7,5.2,8.8c-0.1,16-0.1,32,0,48c0,4.1-1.4,6.8-5.1,8.9c-13.9,7.8-27.8,15.8-41.5,24
	c-3.8,2.3-6.9,2-10.6-0.2c-12-7.1-24.2-13.9-36.2-21.1c-3-1.8-5.2-1.6-8.1,0.1c-12.3,7.3-24.7,14.5-37.2,21.5
	c-3.2,1.8-4.4,3.9-4.2,7.5c0.3,4.3,0,8.7,0.1,13c0.1,3.7-1.2,6.3-4.5,8.2c-14.3,8.1-28.4,16.6-42.9,24.5c-2.3,1.2-6.4,1.3-8.7,0
	c-14.6-8-29-16.3-43.2-24.9c-2.1-1.3-3.7-4.6-4.1-7.2c-0.6-4.7-0.4-9.6-0.1-14.5c0.2-3.1-1.1-4.8-3.7-6.2
	c-12.9-7.3-25.7-14.7-38.5-22.2c-2.5-1.5-4.3-1.3-6.7,0.1c-12.2,7.2-24.5,14.1-36.7,21.3c-3.9,2.3-7.2,2.3-11.1,0
	c-13.6-8.1-27.3-16-41-23.7c-3.7-2.1-5.2-4.7-5.1-8.8C0.7,293.8,0.6,285.8,0.6,277.8z M143.2,323.2c0-5.5,0.3-10-0.1-14.4
	c-0.4-5.3,1.5-8.7,6.3-11.2c12.1-6.6,23.9-13.8,35.9-20.5c2.6-1.5,3.8-3.1,3.7-6.2c-0.3-5.1-0.3-10.3,0-15.5
	c0.1-2.9-0.9-4.5-3.4-5.9c-12.2-6.9-24.1-14.1-36.4-20.8c-4.6-2.5-6.3-5.7-6.1-10.8c0.5-13.6,0.8-27.2,1-40.8c0-1.8-0.9-4.5-2.3-5.3
	c-13.6-8.1-27.4-15.8-41-23.8c-2.3-1.4-4-1.3-6.3,0c-10.9,6.5-21.8,12.8-32.8,18.9c-2.7,1.5-3.7,3.2-3.7,6.3c0.2,14.7,0.2,29.3,0,44
	c0,3.3,1,5.1,3.9,6.7c12.2,6.8,24.2,14,36.4,20.8c4.2,2.3,5.7,5.3,5.7,10c-0.2,14-0.2,28,0,42c0,1.7,0.8,4.2,2,5
	C118,308.8,130.1,315.7,143.2,323.2z M246.8,323.2c12.4-7.2,23.8-13.9,35.4-20.3c3.1-1.7,4-3.7,3.9-7.1c-0.2-14,0-28-0.1-42
	c0-4.2,1.5-6.8,5.1-8.8c12.5-7,24.9-14.2,37.1-21.5c1.7-1,3.4-3.7,3.5-5.6c0.3-15,0.3-30,0-45c0-1.9-1.4-4.5-3-5.4
	c-11.1-6.7-22.3-13.2-33.7-19.5c-1.5-0.8-4.2-0.7-5.6,0.1c-12.6,7-25,14.6-37.8,21.4c-4.5,2.4-5.5,6-5.6,10
	c-0.1,13.4-0.1,26.9,0.5,40.3c0.2,4.4-1.5,6.4-4.7,8.3c-12.4,7.1-24.7,14.3-37.2,21.3c-2.7,1.5-3.7,3.2-3.6,6.3c0.2,5,0.3,10,0,15
	c-0.2,3.4,1.2,5,4,6.6c12.3,6.9,24.5,14.2,36.8,21.1c3.6,2,5.3,4.7,5.1,8.8C246.7,312.1,246.8,317.1,246.8,323.2z M143.2,67.4
	C130.1,75,118,81.9,106,89.1c-1.2,0.7-2,2.9-2,4.5c-0.2,12.8-0.2,25.7,0.1,38.5c0,1.8,1.5,4.4,3,5.3c12.8,7.7,25.9,15,38.8,22.7
	c2.7,1.6,4.7,1.4,7.2-0.1c11.4-6.8,23.2-13.1,34.5-20.1c5.2-3.2,9.3-3.5,14.6-0.1c11.4,7.1,23.2,13.7,35,20.2
	c1.7,0.9,4.6,1.2,6.2,0.4c13.4-7.4,26.6-15.1,39.8-22.9c1.5-0.9,2.8-3.2,2.8-4.9c0.2-12.8,0-25.7,0.2-38.5c0-2.9-1.1-4.4-3.5-5.8
	c-10.7-6-21.3-12.3-32-18.4c-1.1-0.6-2.2-1-3.8-1.7c0,5.6-0.1,10.6,0,15.6c0.2,4.1-1.5,6.8-5.1,8.8c-13.9,7.9-27.7,15.9-41.5,24
	c-3.5,2.1-6.5,2.3-10.2,0.1c-13.9-8.2-27.9-16.3-41.9-24.2c-3.7-2.1-5.1-4.9-5-9C143.4,78.3,143.2,73.4,143.2,67.4z M331.8,319.9
	c0-12.9,0.1-24.8-0.1-36.7c0-1.2-1.7-2.7-2.9-3.4c-6.5-3.9-13.2-7.7-19.8-11.5c-3.4-1.9-6.7-3.8-10.7-6c0,12.6-0.1,24.2,0.1,35.8
	c0,1.3,1.2,3.2,2.3,3.9C310.6,307.8,320.7,313.5,331.8,319.9z M58.2,319.9c11.3-6.5,21.8-12.5,32.1-18.7c1-0.6,1.4-2.8,1.5-4.3
	c0.2-6.3,0.1-12.6,0.1-19c0-5,0-10.1,0-15.9c-11.1,6.4-21.4,12.2-31.5,18.3c-1.1,0.7-2.1,2.6-2.1,3.9
	C58.2,295.7,58.2,307.2,58.2,319.9z M58.2,153.9c0.8,0.1,1.2,0.3,1.4,0.1c6.9-3.9,13.6-8.5,20.8-11.6c9.2-3.9,12.7-9.8,11.5-19.8
	c-1-8.1-0.2-16.4-0.2-25.5c-11.2,6.5-21.6,12.4-31.8,18.4c-0.8,0.5-1.7,1.8-1.7,2.7C58.2,130.1,58.2,142,58.2,153.9z M331.5,154.8
	c0.2-1.3,0.3-1.7,0.3-2c0-7.8-0.7-15.7,0.2-23.4c1.2-9.8-2-15.6-11.2-19.5c-7.7-3.2-14.6-8.2-22.6-12.8c0,12.8,0,24.6,0.1,36.3
	c0,1.1,0.9,2.6,1.8,3.2C310.3,142.6,320.6,148.5,331.5,154.8z M162.1,168.8c0.9,0.7,1.3,1.2,1.9,1.5c9.7,5.9,19.5,11.7,29.3,17.5
	c0.7,0.4,2,0.6,2.7,0.2c10.8-6.2,21.5-12.4,32.6-18.9c-10.9-6.3-21.4-12.4-32-18.4c-0.8-0.5-2.4-0.3-3.2,0.2
	C182.9,156.7,172.6,162.7,162.1,168.8z M155.9,179.9c-0.3,2.6-0.7,4.7-0.7,6.8c0.1,5.5,1.1,11.1,0.3,16.4
	c-1.7,11.3,2.1,18.3,12.9,22.6c7,2.7,13.2,7.4,20.5,11.6c0-13.1,0.1-25.2-0.1-37.2c0-1.1-1.4-2.5-2.5-3.2c-4.9-3.1-9.8-6-14.9-8.8
	C166.7,185.3,161.7,182.9,155.9,179.9z M201.1,236.9c1.3-0.5,2.1-0.7,2.8-1.1c9.7-5.5,19.4-11,28.9-16.8c1.1-0.7,2-2.5,2-3.9
	c0-8.6-0.3-17.3-0.5-25.9c-0.1-2.9,0-5.7,0-9.5c-11.2,6.2-21.5,11.8-31.6,17.5c-0.8,0.5-1.6,1.8-1.6,2.7
	C201,212.1,201.1,224.2,201.1,236.9z M371.1,86.6c-8.3-4.8-16.3-8.6-23.3-13.7c-7-5-12.7-5.3-19.8-0.1c-7.1,5.2-15.3,9.1-23.5,13.8
	c10.8,6.2,20.8,12.1,30.9,17.7c1.1,0.6,3,0.9,4,0.4C349.9,98.9,360.1,92.9,371.1,86.6z M161.7,33.3c11,6.3,21.1,12.3,31.4,18
	c1.2,0.7,3.5,0.2,4.8-0.5c7.9-4.3,15.6-8.9,23.4-13.4c2.2-1.3,4.3-2.6,6.9-4.2c-10.7-6.2-20.6-12-30.6-17.6
	c-1.3-0.7-3.6-0.9-4.9-0.2C182.6,21.1,172.6,27,161.7,33.3z M85.6,86.6c-11-6.4-21.1-12.3-31.4-18.1c-1.2-0.6-3.5-0.2-4.8,0.6
	c-7.6,4.2-15,8.5-22.5,12.9c-2.5,1.4-4.9,2.9-7.8,4.7c10.7,6.2,20.6,12,30.6,17.6c1.3,0.7,3.6,0.8,4.9,0.1
	C64.7,98.7,74.7,92.8,85.6,86.6z M228.3,304.8c-10.9-6.3-21.2-12.3-31.6-18.2c-0.8-0.5-2.4-0.6-3.2-0.1c-10.5,5.9-20.9,12-31.8,18.3
	c10.8,6.2,20.8,12.1,31,17.7c1.1,0.6,3.1,0.9,4.1,0.4C207.2,317.1,217.5,311,228.3,304.8z M85.6,251.5c-11.1-6.4-21.5-12.4-32-18.4
	c-0.7-0.4-2-0.4-2.7,0c-10.5,6-20.9,12-32,18.4c11,6.3,21.1,12.2,31.4,18c1,0.5,2.7,0.7,3.6,0.2C64.3,263.8,74.5,257.9,85.6,251.5z
	 M304.5,251.5c6.2,3.6,11.8,6.9,17.4,10c5.3,3,10.7,8.2,16.1,8.2c5.4,0,10.7-5.3,16.1-8.3c5.5-3.1,11-6.4,17.1-9.9
	c-11.1-6.4-21.2-12.3-31.5-18.1c-0.8-0.5-2.3-0.7-3.1-0.3C326.1,239,315.6,245.1,304.5,251.5z M344,154.8c7.6-4.4,14.2-9,21.4-12.1
	c9.5-4.1,13.4-10,12-20.5c-1-7.9-0.2-16.1-0.2-25c-11.1,6.4-21.3,12.3-31.5,18.2c-0.8,0.5-1.7,1.8-1.7,2.7
	C343.9,130.1,344,142,344,154.8z M155.7,43.9c0,7.8,0,14.6,0,21.4c0.1,5.6-1.6,12.3,0.9,16.6c2.5,4.3,9,6.2,13.9,9
	c5.9,3.5,11.9,6.8,18.5,10.6c0-12.5,0.1-24.2-0.1-35.8c0-1.2-0.8-3-1.9-3.6C177,56.2,166.8,50.3,155.7,43.9z M234.4,43.9
	c-11.1,6.4-21.4,12.3-31.6,18.3c-0.8,0.5-1.6,1.8-1.6,2.8c-0.1,11.9-0.1,23.8-0.1,36.6c11.1-6.4,21.4-12.3,31.6-18.3
	c0.8-0.5,1.6-1.8,1.6-2.8C234.4,68.6,234.4,56.7,234.4,43.9z M46.1,154.9c0-12.7,0-24.3-0.1-36c0-1.1-0.6-2.8-1.5-3.3
	c-10.2-6.1-20.6-12-31.7-18.3c0,12.8,0,24.8,0.1,36.7c0,0.9,0.9,2.2,1.7,2.7C24.8,142.6,35,148.5,46.1,154.9z M344,319.8
	c11-6.4,21.3-12.2,31.3-18.3c1.1-0.7,1.8-3,1.8-4.5c0.2-7.8,0.1-15.7,0.1-23.5c0-3.5,0-7.1,0-11.4c-11.1,6.4-21.2,12.1-31.1,18.1
	c-1.1,0.7-2,2.6-2,4C343.9,295.8,344,307.2,344,319.8z M12.9,262.2c0,12.8,0,24.4,0.1,36.1c0,1,0.5,2.5,1.2,3
	c10.4,6.1,20.9,12.1,32,18.6c0-12.7,0-24.5-0.1-36.3c0-1.1-0.9-2.6-1.8-3.1C34.1,274.3,23.9,268.5,12.9,262.2z M155.7,315.5
	c0,13-0.1,24.9,0.1,36.8c0,1.2,1.8,2.6,3,3.4c7.4,4.4,14.9,8.7,22.4,13c2.4,1.3,4.8,2.6,7.7,4.2c0-8.1-0.9-15.4,0.2-22.3
	c1.9-12.1-2.5-19.4-13.8-24C168.8,323.9,162.8,319.6,155.7,315.5z M201.1,373c5.6-3.2,10.5-5.9,15.3-8.7c5.9-3.4,14-5.6,16.9-10.7
	c3-5.3,1-13.6,1.1-20.5c0.1-5.5,0-11.1,0-17.6c-11.2,6.5-21.4,12.3-31.5,18.3c-0.8,0.5-1.7,1.8-1.7,2.7
	C201.1,348.2,201.1,360.1,201.1,373z"/>
</svg>
