<?xml version="1.0" encoding="utf-8"?>
<!-- Generator: Adobe Illustrator 21.1.0, SVG Export Plug-In . SVG Version: 6.00 Build 0)  -->
<svg version="1.1" id="Layer_1" xmlns="http://www.w3.org/2000/svg" xmlns:xlink="http://www.w3.org/1999/xlink" x="0px" y="0px"
	 viewBox="0 0 390 389" style="enable-background:new 0 0 390 389;" xml:space="preserve">
<style type="text/css">
	.st0{fill:#488AFF;}
	.st1{fill:none;}
</style>
<path class="st0" d="M196.1,93.6c-9.2,0-16.7,7.5-16.7,16.7s7.5,16.7,16.7,16.7c9.2,0,16.7-7.5,16.7-16.7S205.3,93.6,196.1,93.6
	L196.1,93.6z M196.1,118.6c-4.6,0-8.3-3.7-8.3-8.3c0-4.6,3.7-8.3,8.3-8.3c4.6,0,8.3,3.7,8.3,8.3
	C204.5,114.9,200.7,118.6,196.1,118.6L196.1,118.6z M196.1,118.6"/>
<path class="st0" d="M264,256.9H144.9c-2.3,0-4.2,1.9-4.2,4.2c0,2.3,1.9,4.2,4.2,4.2H264c2.3,0,4.2-1.9,4.2-4.2
	C268.2,258.8,266.3,256.9,264,256.9L264,256.9z M264,256.9"/>
<rect x="89.5" y="68.5" class="st1" width="213.5" height="214"/>
<path class="st0" d="M194.6,388.2c-51.7,0-100.2-20.1-136.8-56.6C21.3,295,1.2,246.4,1.2,194.7C1.2,143.1,21.3,94.5,57.8,58
	C94.4,21.5,142.9,1.3,194.6,1.3S294.8,21.5,331.4,58c36.5,36.5,56.6,85.1,56.6,136.8c0,51.7-20.1,100.2-56.6,136.8
	C294.8,368,246.3,388.2,194.6,388.2z M194.6,11.7C93.7,11.7,11.5,93.8,11.5,194.7c0,100.9,82.1,183.1,183.1,183.1
	c100.9,0,183.1-82.1,183.1-183.1C377.6,93.8,295.5,11.7,194.6,11.7z M194.6,363.5c-41.3,0-81.1-15.2-112.1-42.7l-4.1-3.6L317,78.6
	l3.6,4.1c27.5,30.9,42.7,70.7,42.7,112.1C363.3,287.8,287.6,363.5,194.6,363.5z M93.6,316.6c28.4,23.6,64.1,36.5,101,36.5
	c87.3,0,158.4-71.1,158.4-158.4c0-37-12.9-72.6-36.5-101L93.6,316.6z M68.4,306.8l-3.6-4.4c-25.1-30.2-39-68.5-39-107.7
	c0-93,75.7-168.7,168.7-168.7c39.3,0,77.5,13.8,107.7,39l4.4,3.6L68.4,306.8z M194.6,36.4c-87.3,0-158.4,71-158.4,158.4
	c0,35,11.7,69.1,33,96.7L291.3,69.4C263.7,48.1,229.5,36.4,194.6,36.4z"/>
<g>
	<path class="st0" d="M300.9,136C300.9,136,300.9,136,300.9,136L276,119.8l-6,6l14.6,9.5h-24l-8.3,8.3h42.2v4.2
		c0,2.3-1.9,4.2-4.2,4.2h-46.4l-9,9v7.7h-7.7l-8.3,8.3h7.7v46.7H217v-44.7l-8.3,8.3v36.4h-4.2c-2.3,0-4.2,1.9-4.2,4.2v12.5H192
		v-12.5c0-2.3-1.9-4.2-4.2-4.2h-4.2v-11.4l-8.3,8.3v3.1h-3.1l-8.3,8.3h19.7v8.3h-26.2v-1.8l-10.2,10.2h139.9c2.1,0,3.9,1.6,4.1,3.6
		l2.7,21.3H122.2l-8.3,8.3h184.7c1.2,0,2.3-0.5,3.1-1.4c0.8-0.9,1.2-2.1,1-3.3l-3.3-26c-0.4-3.5-2.3-6.6-5-8.5v-14.9
		c0-2.3-1.9-4.2-4.2-4.2h-4.2v-46.7h4.2c2.3,0,4.2-1.9,4.2-4.2v-13.2c4.8-1.7,8.3-6.4,8.3-11.8v-8.3c0,0,0,0,0-0.1
		C302.8,138,302,136.7,300.9,136z M234.9,240.3h-26.2v-8.3h26.2V240.3z M251.5,227.8v12.5h-8.3v-12.5c0-2.3-1.9-4.2-4.2-4.2h-4.2
		v-46.7h4.2c2.3,0,4.2-1.9,4.2-4.2v-12.5h8.3v12.5c0,2.3,1.9,4.2,4.2,4.2h4.2v46.7h-4.2C253.4,223.6,251.5,225.5,251.5,227.8z
		 M286.1,240.3h-26.2v-8.3h26.2V240.3z M268.2,223.6v-46.7h9.6v46.7H268.2z M286.1,168.6h-26.2v-8.3h26.2V168.6z"/>
	<path class="st0" d="M97.8,159.6v13.2c0,2.3,1.9,4.2,4.2,4.2h4.2v46.7H102c-2.3,0-4.2,1.9-4.2,4.2v14.9c-2.7,2-4.6,5-5,8.5l-3.3,26
		c-0.1,1.2,0.2,2.4,1,3.3c0.5,0.6,1.2,1,2,1.2l8.1-8.1h-2.3l2.7-21.3c0.3-2.1,2-3.6,4.1-3.6h20.4l15.1-15.1v-5.7
		c0-2.3-1.9-4.2-4.2-4.2h-4.2v-46.7h4.2c2.3,0,4.2-1.9,4.2-4.2v-12.5h8.3v12.5c0,2.3,1.9,4.2,4.2,4.2h4.2v39.9l8.3-8.3v-31.6h9.6v22
		l8.3-8.3v-13.6h4.2c2.3,0,4.2-1.9,4.2-4.2v-12.5h8.3v12.5c0,0.3,0.1,0.7,0.1,1l8.2-8.2v-5.3h5.3l8.3-8.3H102
		c-2.3,0-4.2-1.9-4.2-4.2v-4.2h132.8l8.3-8.3H107.7l88.4-57.5l60.8,39.5l6-6l-64.5-42c-1.4-0.9-3.2-0.9-4.5,0
		c-0.5,0.3-102,66.4-102.5,66.7c-1.1,0.7-1.8,2-1.9,3.4c0,0,0,0,0,0.1v8.3C89.5,153.2,93,157.8,97.8,159.6z M157.4,160.3h26.2v8.3
		h-26.2V160.3z M132.4,240.3h-26.2v-8.3h26.2V240.3z M114.5,223.6v-46.7h9.6v46.7H114.5z M106.2,160.3h26.2v8.3h-26.2V160.3z"/>
</g>
</svg>
